<?xml version="1.0" encoding="UTF-8"?>
<svg width="165.47" height="132.46" version="1.1" viewBox="0 0 43.781 35.046" xmlns="http://www.w3.org/2000/svg" xmlns:cc="http://creativecommons.org/ns#" xmlns:dc="http://purl.org/dc/elements/1.1/" xmlns:rdf="http://www.w3.org/1999/02/22-rdf-syntax-ns#">
 <metadata>
  <rdf:RDF>
   <cc:Work rdf:about="">
    <dc:format>image/svg+xml</dc:format>
    <dc:type rdf:resource="http://purl.org/dc/dcmitype/StillImage"/>
    <dc:title/>
   </cc:Work>
  </rdf:RDF>
 </metadata>
 <g transform="translate(-29.479,-91.733)" fill="#fff">
  <g fill-opacity=".99714">
   <path d="m31.983 111.9v6.9169h-2.5048l2.4531 2.4779 2.4526 2.4784 2.4526-2.4784 2.4526-2.4779h-2.5048v-6.9169z"/>
   <path d="m70.755 107.36v-6.9169h2.5048l-2.4531-2.4779-2.4526-2.4784-2.4526 2.4784-2.4526 2.4779h2.5048v6.9169z"/>
   <rect x="31.865" y="92.253" width="5.1395" height="14.133"/>
   <rect x="65.528" y="112.6" width="5.1394" height="14.133"/>
  </g>
  <path d="m36.833 97.221c2.073-3.6956 5.1667-5.5744 9.251-5.4821 4.4602-0.164 7.4507 2.9433 7.7395 8.1289-0.05047 6.2239-0.28265 17.016-0.21199 19.55 0.03873 4.3334 9.2595 3.0929 12.174-2.4097l-0.17132 4.7112c-3.7347 7.5433-16.768 6.5064-16.703-2.1414v-19.701c-0.21829-1.7774-0.67282-3.4743-2.9634-3.9041-5.1855-0.33918-6.2396 2.0633-9.3713 5.7029z"/>
 </g>
</svg>
